<svg width="18" height="18" viewBox="0 0 18 18" fill="none" xmlns="http://www.w3.org/2000/svg">
<path fill-rule="evenodd" clip-rule="evenodd" d="M1.125 9.00001C1.125 8.85082 1.18426 8.70775 1.28975 8.60226C1.39524 8.49677 1.53832 8.43751 1.6875 8.43751H14.9546L11.4142 4.89826C11.3086 4.79264 11.2493 4.64938 11.2493 4.50001C11.2493 4.35064 11.3086 4.20738 11.4142 4.10176C11.5199 3.99614 11.6631 3.9368 11.8125 3.9368C11.9619 3.9368 12.1051 3.99614 12.2108 4.10176L16.7108 8.60176C16.7631 8.65401 16.8047 8.71608 16.8331 8.78442C16.8614 8.85276 16.876 8.92602 16.876 9.00001C16.876 9.074 16.8614 9.14726 16.8331 9.2156C16.8047 9.28393 16.7631 9.34601 16.7108 9.39826L12.2108 13.8983C12.1051 14.0039 11.9619 14.0632 11.8125 14.0632C11.6631 14.0632 11.5199 14.0039 11.4142 13.8983C11.3086 13.7926 11.2493 13.6494 11.2493 13.5C11.2493 13.3506 11.3086 13.2074 11.4142 13.1018L14.9546 9.56251H1.6875C1.53832 9.56251 1.39524 9.50325 1.28975 9.39776C1.18426 9.29227 1.125 9.14919 1.125 9.00001Z" fill="#34A853"/>
</svg>
