<svg width="11" height="16" viewBox="0 0 11 16" fill="none" xmlns="http://www.w3.org/2000/svg">
<path d="M1.4833 15.2505L1.48311 15.2503L0.379594 14.1468C-0.0599696 13.7072 -0.0596963 12.9968 0.379405 12.5624L0.379594 12.5622L5.08662 7.85518L5.12198 7.81982L5.08662 7.78447L0.379594 3.07744C-0.0599696 2.63787 -0.0596963 1.92749 0.379404 1.49306L0.379827 1.49264L1.47823 0.379594C1.47826 0.379557 1.4783 0.379521 1.47834 0.379484C1.91791 -0.0599696 2.62821 -0.0596599 3.0626 0.379405L3.06279 0.379594L9.70341 7.02022L9.7036 7.02041C10.1477 7.45985 10.1477 8.17024 9.7083 8.60966L3.06767 15.2503C2.62811 15.6899 1.91773 15.6896 1.4833 15.2505Z" fill="#4A90C5" stroke="#4A90C5" stroke-width="0.1"/>
</svg>
