<svg width="19" height="19" viewBox="0 0 19 19" fill="none" xmlns="http://www.w3.org/2000/svg">
<path d="M8.1234 3.08387L8.90387 2.3034C9.23434 1.97293 9.76871 1.97293 10.0957 2.3034L16.93 9.13426C17.2605 9.46473 17.2605 9.99911 16.93 10.3261L10.0957 17.1604C9.76519 17.4909 9.23082 17.4909 8.90387 17.1604L8.1234 16.38C7.78941 16.046 7.79644 15.5011 8.13746 15.1741L12.3738 11.1382H2.26988C1.8023 11.1382 1.42613 10.762 1.42613 10.2944V9.16942C1.42613 8.70184 1.8023 8.32567 2.26988 8.32567H12.3738L8.13746 4.28973C7.79293 3.96278 7.7859 3.41785 8.1234 3.08387Z" fill="#34A853"/>
</svg>
