<svg width="22" height="20" viewBox="0 0 22 20" fill="none" xmlns="http://www.w3.org/2000/svg">
<path d="M4.69565 6.78572C4.69565 5.50001 4.69565 3.05715 4.69565 3.57144C4.69565 2.92857 5.47826 1 9 1C11.8174 1 13.3043 2.60714 13.3043 3.57144V6.78572" stroke="#3A5664" stroke-width="1.5" stroke-linecap="round"/>
<path fill-rule="evenodd" clip-rule="evenodd" d="M3 6.35715H15C15.8284 6.35715 16.5 7.02872 16.5 7.85715V10.5714H18V7.85715C18 6.20029 16.6569 4.85715 15 4.85715H3C1.34315 4.85715 0 6.20029 0 7.85715V16C0 17.6569 1.34315 19 3 19H9H9.3913V17.5H9H3C2.17157 17.5 1.5 16.8284 1.5 16V7.85715C1.5 7.02872 2.17157 6.35715 3 6.35715Z" fill="#3A5664"/>
<path d="M15 13C15.0995 13 15.1948 13.0395 15.2652 13.1098C15.3355 13.1802 15.375 13.2755 15.375 13.375V15.625H17.625C17.7245 15.625 17.8198 15.6645 17.8902 15.7348C17.9605 15.8052 18 15.9005 18 16C18 16.0995 17.9605 16.1948 17.8902 16.2652C17.8198 16.3355 17.7245 16.375 17.625 16.375H15.375V18.625C15.375 18.7245 15.3355 18.8198 15.2652 18.8902C15.1948 18.9605 15.0995 19 15 19C14.9005 19 14.8052 18.9605 14.7348 18.8902C14.6645 18.8198 14.625 18.7245 14.625 18.625V16.375H12.375C12.2755 16.375 12.1802 16.3355 12.1098 16.2652C12.0395 16.1948 12 16.0995 12 16C12 15.9005 12.0395 15.8052 12.1098 15.7348C12.1802 15.6645 12.2755 15.625 12.375 15.625H14.625V13.375C14.625 13.2755 14.6645 13.1802 14.7348 13.1098C14.8052 13.0395 14.9005 13 15 13Z" fill="#3A5664" stroke="#3A5664" stroke-width="0.5"/>
<mask id="path-4-inside-1_28_82" fill="white">
<path d="M9.75 17.5H8.25C7.83579 17.5 7.5 17.8358 7.5 18.25C7.5 18.6642 7.83579 19 8.25 19H9.75C10.1642 19 10.5 18.6642 10.5 18.25C10.5 17.8358 10.1642 17.5 9.75 17.5Z"/>
</mask>
<path d="M8.25 19H9.75V16H8.25V19ZM9.75 17.5H8.25V20.5H9.75V17.5ZM8.25 17.5C8.66421 17.5 9 17.8358 9 18.25H6C6 19.4926 7.00736 20.5 8.25 20.5V17.5ZM9 18.25C9 17.8358 9.33579 17.5 9.75 17.5V20.5C10.9926 20.5 12 19.4926 12 18.25H9ZM9.75 19C9.33579 19 9 18.6642 9 18.25H12C12 17.0074 10.9926 16 9.75 16V19ZM8.25 16C7.00736 16 6 17.0074 6 18.25H9C9 18.6642 8.66421 19 8.25 19V16Z" fill="#3A5664" mask="url(#path-4-inside-1_28_82)"/>
<g filter="url(#filter0_d_28_82)">
<mask id="path-6-inside-2_28_82" fill="white">
<path d="M18 10.75V9.75C18 9.33579 17.6642 9 17.25 9C16.8358 9 16.5 9.33579 16.5 9.75V10.75C16.5 11.1642 16.8358 11.5 17.25 11.5C17.6642 11.5 18 11.1642 18 10.75Z"/>
</mask>
<path d="M16.5 9.75V10.75H19.5V9.75H16.5ZM18 10.75V9.75H15V10.75H18ZM18 9.75C18 10.1642 17.6642 10.5 17.25 10.5V7.5C16.0074 7.5 15 8.50736 15 9.75H18ZM17.25 10C17.6642 10 18 10.3358 18 10.75H15C15 11.9926 16.0074 13 17.25 13V10ZM16.5 10.75C16.5 10.3358 16.8358 10 17.25 10V13C18.4926 13 19.5 11.9926 19.5 10.75H16.5ZM19.5 9.75C19.5 8.50736 18.4926 7.5 17.25 7.5V10.5C16.8358 10.5 16.5 10.1642 16.5 9.75H19.5Z" fill="#3A5664" mask="url(#path-6-inside-2_28_82)"/>
</g>
<defs>
<filter id="filter0_d_28_82" x="12.5" y="9" width="9.5" height="10.5" filterUnits="userSpaceOnUse" color-interpolation-filters="sRGB">
<feFlood flood-opacity="0" result="BackgroundImageFix"/>
<feColorMatrix in="SourceAlpha" type="matrix" values="0 0 0 0 0 0 0 0 0 0 0 0 0 0 0 0 0 0 127 0" result="hardAlpha"/>
<feOffset dy="4"/>
<feGaussianBlur stdDeviation="2"/>
<feComposite in2="hardAlpha" operator="out"/>
<feColorMatrix type="matrix" values="0 0 0 0 0 0 0 0 0 0 0 0 0 0 0 0 0 0 0.25 0"/>
<feBlend mode="normal" in2="BackgroundImageFix" result="effect1_dropShadow_28_82"/>
<feBlend mode="normal" in="SourceGraphic" in2="effect1_dropShadow_28_82" result="shape"/>
</filter>
</defs>
</svg>
