<svg width="25" height="25" viewBox="0 0 25 25" fill="none" xmlns="http://www.w3.org/2000/svg">
<path d="M4.16667 11.4583H10.4167C10.6929 11.4583 10.9579 11.3486 11.1532 11.1532C11.3486 10.9579 11.4583 10.6929 11.4583 10.4167V4.16667C11.4583 3.8904 11.3486 3.62545 11.1532 3.4301C10.9579 3.23475 10.6929 3.125 10.4167 3.125H4.16667C3.8904 3.125 3.62545 3.23475 3.4301 3.4301C3.23475 3.62545 3.125 3.8904 3.125 4.16667V10.4167C3.125 10.6929 3.23475 10.9579 3.4301 11.1532C3.62545 11.3486 3.8904 11.4583 4.16667 11.4583ZM5.20833 5.20833H9.375V9.375H5.20833V5.20833Z" fill="#464255"/>
<path d="M14.5834 11.4583H20.8334C21.1097 11.4583 21.3746 11.3486 21.57 11.1532C21.7653 10.9579 21.8751 10.6929 21.8751 10.4167V4.16667C21.8751 3.8904 21.7653 3.62545 21.57 3.4301C21.3746 3.23475 21.1097 3.125 20.8334 3.125H14.5834C14.3071 3.125 14.0422 3.23475 13.8468 3.4301C13.6515 3.62545 13.5417 3.8904 13.5417 4.16667V10.4167C13.5417 10.6929 13.6515 10.9579 13.8468 11.1532C14.0422 11.3486 14.3071 11.4583 14.5834 11.4583ZM15.6251 5.20833H19.7917V9.375H15.6251V5.20833Z" fill="#464255"/>
<path d="M4.16667 21.8748H10.4167C10.6929 21.8748 10.9579 21.7651 11.1532 21.5697C11.3486 21.3744 11.4583 21.1094 11.4583 20.8332V14.5832C11.4583 14.3069 11.3486 14.042 11.1532 13.8466C10.9579 13.6513 10.6929 13.5415 10.4167 13.5415H4.16667C3.8904 13.5415 3.62545 13.6513 3.4301 13.8466C3.23475 14.042 3.125 14.3069 3.125 14.5832V20.8332C3.125 21.1094 3.23475 21.3744 3.4301 21.5697C3.62545 21.7651 3.8904 21.8748 4.16667 21.8748ZM5.20833 15.6248H9.375V19.7915H5.20833V15.6248Z" fill="#464255"/>
<path d="M14.5834 21.8748H20.8334C21.1097 21.8748 21.3746 21.7651 21.57 21.5697C21.7653 21.3744 21.8751 21.1094 21.8751 20.8332V14.5832C21.8751 14.3069 21.7653 14.042 21.57 13.8466C21.3746 13.6513 21.1097 13.5415 20.8334 13.5415H14.5834C14.3071 13.5415 14.0422 13.6513 13.8468 13.8466C13.6515 14.042 13.5417 14.3069 13.5417 14.5832V20.8332C13.5417 21.1094 13.6515 21.3744 13.8468 21.5697C14.0422 21.7651 14.3071 21.8748 14.5834 21.8748ZM15.6251 15.6248H19.7917V19.7915H15.6251V15.6248Z" fill="#464255"/>
</svg>
