<svg width="242" height="242" viewBox="0 0 242 242" fill="none" xmlns="http://www.w3.org/2000/svg">
<path d="M99.0139 100.964C97.2805 100.063 96.4139 98.6673 96.4139 96.778C96.4139 95.842 96.6479 94.9927 97.1159 94.23C97.6012 93.45 98.3205 92.8347 99.2739 92.384C100.245 91.916 101.423 91.682 102.81 91.682C104.197 91.682 105.367 91.916 106.32 92.384C107.291 92.8347 108.01 93.45 108.478 94.23C108.963 94.9927 109.206 95.842 109.206 96.778C109.206 97.7313 108.972 98.572 108.504 99.3C108.036 100.011 107.412 100.565 106.632 100.964C107.585 101.38 108.331 101.987 108.868 102.784C109.405 103.581 109.674 104.526 109.674 105.618C109.674 106.797 109.371 107.828 108.764 108.712C108.175 109.579 107.36 110.246 106.32 110.714C105.28 111.182 104.11 111.416 102.81 111.416C101.51 111.416 100.34 111.182 99.2999 110.714C98.2772 110.246 97.4625 109.579 96.8559 108.712C96.2665 107.828 95.9719 106.797 95.9719 105.618C95.9719 104.526 96.2405 103.581 96.7779 102.784C97.3152 101.969 98.0605 101.363 99.0139 100.964ZM105.67 97.298C105.67 96.4487 105.41 95.79 104.89 95.322C104.387 94.854 103.694 94.62 102.81 94.62C101.943 94.62 101.25 94.854 100.73 95.322C100.227 95.79 99.9759 96.4573 99.9759 97.324C99.9759 98.104 100.236 98.728 100.756 99.196C101.293 99.664 101.978 99.898 102.81 99.898C103.642 99.898 104.327 99.664 104.864 99.196C105.401 98.7107 105.67 98.078 105.67 97.298ZM102.81 102.55C101.822 102.55 101.016 102.801 100.392 103.304C99.7852 103.807 99.4819 104.526 99.4819 105.462C99.4819 106.329 99.7765 107.039 100.366 107.594C100.973 108.131 101.787 108.4 102.81 108.4C103.833 108.4 104.639 108.123 105.228 107.568C105.817 107.013 106.112 106.311 106.112 105.462C106.112 104.543 105.809 103.833 105.202 103.33C104.595 102.81 103.798 102.55 102.81 102.55ZM112.549 101.276C112.549 98.2773 113.086 95.9287 114.161 94.23C115.253 92.5313 117.056 91.682 119.569 91.682C122.082 91.682 123.876 92.5313 124.951 94.23C126.043 95.9287 126.589 98.2773 126.589 101.276C126.589 104.292 126.043 106.658 124.951 108.374C123.876 110.09 122.082 110.948 119.569 110.948C117.056 110.948 115.253 110.09 114.161 108.374C113.086 106.658 112.549 104.292 112.549 101.276ZM123.001 101.276C123.001 99.9933 122.914 98.9187 122.741 98.052C122.585 97.168 122.256 96.4487 121.753 95.894C121.268 95.3393 120.54 95.062 119.569 95.062C118.598 95.062 117.862 95.3393 117.359 95.894C116.874 96.4487 116.544 97.168 116.371 98.052C116.215 98.9187 116.137 99.9933 116.137 101.276C116.137 102.593 116.215 103.703 116.371 104.604C116.527 105.488 116.856 106.207 117.359 106.762C117.862 107.299 118.598 107.568 119.569 107.568C120.54 107.568 121.276 107.299 121.779 106.762C122.282 106.207 122.611 105.488 122.767 104.604C122.923 103.703 123.001 102.593 123.001 101.276ZM128.941 96.7C128.941 95.3827 129.323 94.3513 130.085 93.606C130.865 92.8607 131.862 92.488 133.075 92.488C134.289 92.488 135.277 92.8607 136.039 93.606C136.819 94.3513 137.209 95.3827 137.209 96.7C137.209 98.0347 136.819 99.0747 136.039 99.82C135.277 100.565 134.289 100.938 133.075 100.938C131.862 100.938 130.865 100.565 130.085 99.82C129.323 99.0747 128.941 98.0347 128.941 96.7ZM145.633 92.8L135.415 111H131.879L142.071 92.8H145.633ZM133.049 94.672C132.096 94.672 131.619 95.348 131.619 96.7C131.619 98.0693 132.096 98.754 133.049 98.754C133.517 98.754 133.881 98.5893 134.141 98.26C134.401 97.9133 134.531 97.3933 134.531 96.7C134.531 95.348 134.037 94.672 133.049 94.672ZM140.355 107.074C140.355 105.739 140.737 104.708 141.499 103.98C142.279 103.235 143.276 102.862 144.489 102.862C145.703 102.862 146.682 103.235 147.427 103.98C148.19 104.708 148.571 105.739 148.571 107.074C148.571 108.409 148.19 109.449 147.427 110.194C146.682 110.939 145.703 111.312 144.489 111.312C143.259 111.312 142.262 110.939 141.499 110.194C140.737 109.449 140.355 108.409 140.355 107.074ZM144.463 105.046C143.475 105.046 142.981 105.722 142.981 107.074C142.981 108.443 143.475 109.128 144.463 109.128C145.434 109.128 145.919 108.443 145.919 107.074C145.919 105.722 145.434 105.046 144.463 105.046Z" fill="#4A5C77"/>
<path d="M121 17C134.657 17 148.181 19.69 160.799 24.9165C173.417 30.143 184.882 37.8036 194.539 47.4609C204.196 57.1182 211.857 68.5831 217.083 81.2009C222.31 93.8188 225 107.343 225 121C225 134.657 222.31 148.181 217.083 160.799C211.857 173.417 204.196 184.882 194.539 194.539C184.882 204.196 173.417 211.857 160.799 217.083C148.181 222.31 134.657 225 121 225C107.342 225 93.8187 222.31 81.2009 217.083C68.583 211.857 57.1182 204.196 47.4609 194.539C37.8036 184.882 30.143 173.417 24.9165 160.799C19.69 148.181 17 134.657 17 121C17 107.342 19.6901 93.8187 24.9166 81.2009C30.143 68.583 37.8036 57.1181 47.4609 47.4609C57.1182 37.8036 68.5831 30.143 81.201 24.9165C93.8188 19.69 107.343 17 121 17L121 17Z" stroke="#C5C5C5" stroke-width="34" stroke-linecap="round"/>
<path d="M121 17C143.328 17 165.064 24.1861 182.992 37.4955C200.92 50.8048 214.088 69.5307 220.55 90.9037C227.012 112.277 226.423 135.162 218.871 156.174C211.32 177.187 197.206 195.211 178.617 207.581C160.029 219.951 137.952 226.01 115.654 224.862C93.3548 223.715 72.0175 215.421 54.7974 201.207C37.5772 186.994 25.3887 167.616 20.0344 145.939C14.6801 124.262 16.4444 101.438 25.0664 80.8411" stroke="#4A5C77" stroke-width="34" stroke-linecap="round"/>
<circle cx="25" cy="85" r="9" fill="white"/>
<path d="M74.239 126.242V132.416C74.239 133.284 74.449 133.928 74.869 134.348C75.2984 134.768 75.891 134.978 76.647 134.978C77.3937 134.978 77.977 134.768 78.397 134.348C78.8264 133.928 79.041 133.284 79.041 132.416V126.242H80.315V132.402C80.315 133.214 80.1517 133.9 79.825 134.46C79.4984 135.011 79.055 135.421 78.495 135.692C77.9444 135.963 77.3237 136.098 76.633 136.098C75.9424 136.098 75.317 135.963 74.757 135.692C74.2064 135.421 73.7677 135.011 73.441 134.46C73.1237 133.9 72.965 133.214 72.965 132.402V126.242H74.239ZM85.1563 136.126C84.5683 136.126 84.041 136.028 83.5743 135.832C83.1076 135.627 82.739 135.347 82.4683 134.992C82.1976 134.628 82.0483 134.213 82.0203 133.746H83.3363C83.3736 134.129 83.551 134.441 83.8683 134.684C84.195 134.927 84.6196 135.048 85.1423 135.048C85.6276 135.048 86.0103 134.941 86.2903 134.726C86.5703 134.511 86.7103 134.241 86.7103 133.914C86.7103 133.578 86.561 133.331 86.2623 133.172C85.9636 133.004 85.5016 132.841 84.8763 132.682C84.307 132.533 83.8403 132.383 83.4763 132.234C83.1216 132.075 82.8136 131.847 82.5523 131.548C82.3003 131.24 82.1743 130.839 82.1743 130.344C82.1743 129.952 82.291 129.593 82.5243 129.266C82.7576 128.939 83.089 128.683 83.5183 128.496C83.9476 128.3 84.4376 128.202 84.9883 128.202C85.8376 128.202 86.5236 128.417 87.0463 128.846C87.569 129.275 87.849 129.863 87.8863 130.61H86.6123C86.5843 130.209 86.421 129.887 86.1223 129.644C85.833 129.401 85.441 129.28 84.9463 129.28C84.489 129.28 84.125 129.378 83.8543 129.574C83.5836 129.77 83.4483 130.027 83.4483 130.344C83.4483 130.596 83.5276 130.806 83.6863 130.974C83.8543 131.133 84.0596 131.263 84.3023 131.366C84.5543 131.459 84.8996 131.567 85.3383 131.688C85.889 131.837 86.337 131.987 86.6823 132.136C87.0276 132.276 87.3216 132.491 87.5643 132.78C87.8163 133.069 87.947 133.447 87.9563 133.914C87.9563 134.334 87.8396 134.712 87.6063 135.048C87.373 135.384 87.0416 135.65 86.6123 135.846C86.1923 136.033 85.707 136.126 85.1563 136.126ZM89.2788 132.136C89.2788 131.352 89.4374 130.666 89.7548 130.078C90.0721 129.481 90.5061 129.019 91.0568 128.692C91.6168 128.365 92.2374 128.202 92.9188 128.202C93.5908 128.202 94.1741 128.347 94.6688 128.636C95.1634 128.925 95.5321 129.289 95.7748 129.728V128.328H97.0628V136H95.7748V134.572C95.5228 135.02 95.1448 135.393 94.6408 135.692C94.1461 135.981 93.5674 136.126 92.9048 136.126C92.2234 136.126 91.6074 135.958 91.0568 135.622C90.5061 135.286 90.0721 134.815 89.7548 134.208C89.4374 133.601 89.2788 132.911 89.2788 132.136ZM95.7748 132.15C95.7748 131.571 95.6581 131.067 95.4248 130.638C95.1914 130.209 94.8741 129.882 94.4728 129.658C94.0808 129.425 93.6468 129.308 93.1708 129.308C92.6948 129.308 92.2608 129.42 91.8688 129.644C91.4768 129.868 91.1641 130.195 90.9308 130.624C90.6974 131.053 90.5808 131.557 90.5808 132.136C90.5808 132.724 90.6974 133.237 90.9308 133.676C91.1641 134.105 91.4768 134.437 91.8688 134.67C92.2608 134.894 92.6948 135.006 93.1708 135.006C93.6468 135.006 94.0808 134.894 94.4728 134.67C94.8741 134.437 95.1914 134.105 95.4248 133.676C95.6581 133.237 95.7748 132.729 95.7748 132.15ZM102.38 128.202C103.042 128.202 103.621 128.347 104.116 128.636C104.62 128.925 104.993 129.289 105.236 129.728V128.328H106.524V136.168C106.524 136.868 106.374 137.489 106.076 138.03C105.777 138.581 105.348 139.01 104.788 139.318C104.237 139.626 103.593 139.78 102.856 139.78C101.848 139.78 101.008 139.542 100.336 139.066C99.6637 138.59 99.267 137.941 99.1457 137.12H100.406C100.546 137.587 100.835 137.96 101.274 138.24C101.712 138.529 102.24 138.674 102.856 138.674C103.556 138.674 104.125 138.455 104.564 138.016C105.012 137.577 105.236 136.961 105.236 136.168V134.558C104.984 135.006 104.61 135.379 104.116 135.678C103.621 135.977 103.042 136.126 102.38 136.126C101.698 136.126 101.078 135.958 100.518 135.622C99.967 135.286 99.533 134.815 99.2157 134.208C98.8984 133.601 98.7397 132.911 98.7397 132.136C98.7397 131.352 98.8984 130.666 99.2157 130.078C99.533 129.481 99.967 129.019 100.518 128.692C101.078 128.365 101.698 128.202 102.38 128.202ZM105.236 132.15C105.236 131.571 105.119 131.067 104.886 130.638C104.652 130.209 104.335 129.882 103.934 129.658C103.542 129.425 103.108 129.308 102.632 129.308C102.156 129.308 101.722 129.42 101.33 129.644C100.938 129.868 100.625 130.195 100.392 130.624C100.158 131.053 100.042 131.557 100.042 132.136C100.042 132.724 100.158 133.237 100.392 133.676C100.625 134.105 100.938 134.437 101.33 134.67C101.722 134.894 102.156 135.006 102.632 135.006C103.108 135.006 103.542 134.894 103.934 134.67C104.335 134.437 104.652 134.105 104.886 133.676C105.119 133.237 105.236 132.729 105.236 132.15ZM115.677 131.87C115.677 132.113 115.663 132.369 115.635 132.64H109.503C109.549 133.396 109.806 133.989 110.273 134.418C110.749 134.838 111.323 135.048 111.995 135.048C112.545 135.048 113.003 134.922 113.367 134.67C113.74 134.409 114.001 134.063 114.151 133.634H115.523C115.317 134.371 114.907 134.973 114.291 135.44C113.675 135.897 112.909 136.126 111.995 136.126C111.267 136.126 110.613 135.963 110.035 135.636C109.465 135.309 109.017 134.847 108.691 134.25C108.364 133.643 108.201 132.943 108.201 132.15C108.201 131.357 108.359 130.661 108.677 130.064C108.994 129.467 109.437 129.009 110.007 128.692C110.585 128.365 111.248 128.202 111.995 128.202C112.723 128.202 113.367 128.361 113.927 128.678C114.487 128.995 114.916 129.434 115.215 129.994C115.523 130.545 115.677 131.17 115.677 131.87ZM114.361 131.604C114.361 131.119 114.253 130.703 114.039 130.358C113.824 130.003 113.53 129.737 113.157 129.56C112.793 129.373 112.387 129.28 111.939 129.28C111.295 129.28 110.744 129.485 110.287 129.896C109.839 130.307 109.582 130.876 109.517 131.604H114.361ZM122.365 129.574C122.589 129.135 122.906 128.795 123.317 128.552C123.737 128.309 124.245 128.188 124.843 128.188V129.504H124.507C123.079 129.504 122.365 130.279 122.365 131.828V136H121.091V128.328H122.365V129.574ZM133.313 131.87C133.313 132.113 133.299 132.369 133.271 132.64H127.139C127.186 133.396 127.443 133.989 127.909 134.418C128.385 134.838 128.959 135.048 129.631 135.048C130.182 135.048 130.639 134.922 131.003 134.67C131.377 134.409 131.638 134.063 131.787 133.634H133.159C132.954 134.371 132.543 134.973 131.927 135.44C131.311 135.897 130.546 136.126 129.631 136.126C128.903 136.126 128.25 135.963 127.671 135.636C127.102 135.309 126.654 134.847 126.327 134.25C126.001 133.643 125.837 132.943 125.837 132.15C125.837 131.357 125.996 130.661 126.313 130.064C126.631 129.467 127.074 129.009 127.643 128.692C128.222 128.365 128.885 128.202 129.631 128.202C130.359 128.202 131.003 128.361 131.563 128.678C132.123 128.995 132.553 129.434 132.851 129.994C133.159 130.545 133.313 131.17 133.313 131.87ZM131.997 131.604C131.997 131.119 131.89 130.703 131.675 130.358C131.461 130.003 131.167 129.737 130.793 129.56C130.429 129.373 130.023 129.28 129.575 129.28C128.931 129.28 128.381 129.485 127.923 129.896C127.475 130.307 127.219 130.876 127.153 131.604H131.997ZM138.733 128.188C139.666 128.188 140.422 128.473 141.001 129.042C141.58 129.602 141.869 130.414 141.869 131.478V136H140.609V131.66C140.609 130.895 140.418 130.311 140.035 129.91C139.652 129.499 139.13 129.294 138.467 129.294C137.795 129.294 137.258 129.504 136.857 129.924C136.465 130.344 136.269 130.955 136.269 131.758V136H134.995V128.328H136.269V129.42C136.521 129.028 136.862 128.725 137.291 128.51C137.73 128.295 138.21 128.188 138.733 128.188ZM150.95 131.87C150.95 132.113 150.936 132.369 150.908 132.64H144.776C144.823 133.396 145.079 133.989 145.546 134.418C146.022 134.838 146.596 135.048 147.268 135.048C147.819 135.048 148.276 134.922 148.64 134.67C149.013 134.409 149.275 134.063 149.424 133.634H150.796C150.591 134.371 150.18 134.973 149.564 135.44C148.948 135.897 148.183 136.126 147.268 136.126C146.54 136.126 145.887 135.963 145.308 135.636C144.739 135.309 144.291 134.847 143.964 134.25C143.637 133.643 143.474 132.943 143.474 132.15C143.474 131.357 143.633 130.661 143.95 130.064C144.267 129.467 144.711 129.009 145.28 128.692C145.859 128.365 146.521 128.202 147.268 128.202C147.996 128.202 148.64 128.361 149.2 128.678C149.76 128.995 150.189 129.434 150.488 129.994C150.796 130.545 150.95 131.17 150.95 131.87ZM149.634 131.604C149.634 131.119 149.527 130.703 149.312 130.358C149.097 130.003 148.803 129.737 148.43 129.56C148.066 129.373 147.66 129.28 147.212 129.28C146.568 129.28 146.017 129.485 145.56 129.896C145.112 130.307 144.855 130.876 144.79 131.604H149.634ZM162.852 128.328L160.458 136H159.142L157.294 129.91L155.446 136H154.13L151.722 128.328H153.024L154.788 134.768L156.692 128.328H157.994L159.856 134.782L161.592 128.328H162.852ZM166.832 136.126C166.244 136.126 165.717 136.028 165.25 135.832C164.783 135.627 164.415 135.347 164.144 134.992C163.873 134.628 163.724 134.213 163.696 133.746H165.012C165.049 134.129 165.227 134.441 165.544 134.684C165.871 134.927 166.295 135.048 166.818 135.048C167.303 135.048 167.686 134.941 167.966 134.726C168.246 134.511 168.386 134.241 168.386 133.914C168.386 133.578 168.237 133.331 167.938 133.172C167.639 133.004 167.177 132.841 166.552 132.682C165.983 132.533 165.516 132.383 165.152 132.234C164.797 132.075 164.489 131.847 164.228 131.548C163.976 131.24 163.85 130.839 163.85 130.344C163.85 129.952 163.967 129.593 164.2 129.266C164.433 128.939 164.765 128.683 165.194 128.496C165.623 128.3 166.113 128.202 166.664 128.202C167.513 128.202 168.199 128.417 168.722 128.846C169.245 129.275 169.525 129.863 169.562 130.61H168.288C168.26 130.209 168.097 129.887 167.798 129.644C167.509 129.401 167.117 129.28 166.622 129.28C166.165 129.28 165.801 129.378 165.53 129.574C165.259 129.77 165.124 130.027 165.124 130.344C165.124 130.596 165.203 130.806 165.362 130.974C165.53 131.133 165.735 131.263 165.978 131.366C166.23 131.459 166.575 131.567 167.014 131.688C167.565 131.837 168.013 131.987 168.358 132.136C168.703 132.276 168.997 132.491 169.24 132.78C169.492 133.069 169.623 133.447 169.632 133.914C169.632 134.334 169.515 134.712 169.282 135.048C169.049 135.384 168.717 135.65 168.288 135.846C167.868 136.033 167.383 136.126 166.832 136.126ZM93.0851 154.082C93.4024 153.83 93.5471 153.713 93.5191 153.732C94.4337 152.976 95.1524 152.355 95.6751 151.87C96.2071 151.385 96.6551 150.876 97.0191 150.344C97.3831 149.812 97.5651 149.294 97.5651 148.79C97.5651 148.407 97.4764 148.109 97.2991 147.894C97.1217 147.679 96.8557 147.572 96.5011 147.572C96.1464 147.572 95.8664 147.707 95.6611 147.978C95.4651 148.239 95.3671 148.613 95.3671 149.098H93.0571C93.0757 148.305 93.2437 147.642 93.5611 147.11C93.8877 146.578 94.3124 146.186 94.8351 145.934C95.3671 145.682 95.9551 145.556 96.5991 145.556C97.7097 145.556 98.5451 145.841 99.1051 146.41C99.6744 146.979 99.9591 147.721 99.9591 148.636C99.9591 149.635 99.6184 150.563 98.9371 151.422C98.2557 152.271 97.3877 153.102 96.3331 153.914H100.113V155.86H93.0851V154.082ZM100.915 148.006V145.78H104.793V156H102.301V148.006H100.915ZM109.847 156.112C109.165 156.112 108.559 155.995 108.027 155.762C107.495 155.529 107.075 155.211 106.767 154.81C106.459 154.399 106.286 153.942 106.249 153.438H108.615C108.643 153.709 108.769 153.928 108.993 154.096C109.217 154.264 109.492 154.348 109.819 154.348C110.117 154.348 110.346 154.292 110.505 154.18C110.673 154.059 110.757 153.905 110.757 153.718C110.757 153.494 110.64 153.331 110.407 153.228C110.173 153.116 109.795 152.995 109.273 152.864C108.713 152.733 108.246 152.598 107.873 152.458C107.499 152.309 107.177 152.08 106.907 151.772C106.636 151.455 106.501 151.03 106.501 150.498C106.501 150.05 106.622 149.644 106.865 149.28C107.117 148.907 107.481 148.613 107.957 148.398C108.442 148.183 109.016 148.076 109.679 148.076C110.659 148.076 111.429 148.319 111.989 148.804C112.558 149.289 112.885 149.933 112.969 150.736H110.757C110.719 150.465 110.598 150.251 110.393 150.092C110.197 149.933 109.935 149.854 109.609 149.854C109.329 149.854 109.114 149.91 108.965 150.022C108.815 150.125 108.741 150.269 108.741 150.456C108.741 150.68 108.857 150.848 109.091 150.96C109.333 151.072 109.707 151.184 110.211 151.296C110.789 151.445 111.261 151.595 111.625 151.744C111.989 151.884 112.306 152.117 112.577 152.444C112.857 152.761 113.001 153.191 113.011 153.732C113.011 154.189 112.88 154.6 112.619 154.964C112.367 155.319 111.998 155.599 111.513 155.804C111.037 156.009 110.481 156.112 109.847 156.112ZM118.829 153.97V156H117.611C116.743 156 116.067 155.79 115.581 155.37C115.096 154.941 114.853 154.245 114.853 153.284V150.176H113.901V148.188H114.853V146.284H117.247V148.188H118.815V150.176H117.247V153.312C117.247 153.545 117.303 153.713 117.415 153.816C117.527 153.919 117.714 153.97 117.975 153.97H118.829ZM134.26 146.172V156H131.866V150.106L129.668 156H127.736L125.524 150.092V156H123.13V146.172H125.958L128.716 152.976L131.446 146.172H134.26ZM135.505 152.08C135.505 151.277 135.655 150.573 135.953 149.966C136.261 149.359 136.677 148.893 137.199 148.566C137.722 148.239 138.305 148.076 138.949 148.076C139.5 148.076 139.981 148.188 140.391 148.412C140.811 148.636 141.133 148.93 141.357 149.294V148.188H143.751V156H141.357V154.894C141.124 155.258 140.797 155.552 140.377 155.776C139.967 156 139.486 156.112 138.935 156.112C138.301 156.112 137.722 155.949 137.199 155.622C136.677 155.286 136.261 154.815 135.953 154.208C135.655 153.592 135.505 152.883 135.505 152.08ZM141.357 152.094C141.357 151.497 141.189 151.025 140.853 150.68C140.527 150.335 140.125 150.162 139.649 150.162C139.173 150.162 138.767 150.335 138.431 150.68C138.105 151.016 137.941 151.483 137.941 152.08C137.941 152.677 138.105 153.153 138.431 153.508C138.767 153.853 139.173 154.026 139.649 154.026C140.125 154.026 140.527 153.853 140.853 153.508C141.189 153.163 141.357 152.691 141.357 152.094ZM153.463 148.188L148.563 159.71H145.987L147.779 155.734L144.601 148.188H147.275L149.081 153.074L150.873 148.188H153.463Z" fill="#4A5C77"/>
</svg>
