<svg width="17" height="17" viewBox="0 0 17 17" fill="none" xmlns="http://www.w3.org/2000/svg">
<path d="M4.95833 7.08337V6.37504C4.95833 4.41903 6.54399 2.83337 8.5 2.83337C10.456 2.83337 12.0417 4.41903 12.0417 6.37504V7.08337C13.6065 7.08337 14.875 8.3519 14.875 9.91671C14.875 10.9654 14.3052 11.906 13.4583 12.3959M4.95833 7.08337C3.39353 7.08337 2.125 8.3519 2.125 9.91671C2.125 10.9654 2.69478 11.906 3.54167 12.3959M4.95833 7.08337C5.26494 7.08337 5.56017 7.13207 5.83671 7.22216M8.5 8.50004V14.875M8.5 8.50004L10.625 10.625M8.5 8.50004L6.375 10.625" stroke="white" stroke-opacity="0.4" stroke-width="1.5" stroke-linecap="round" stroke-linejoin="round"/>
</svg>
