<svg width="249" height="64" viewBox="0 0 249 64" fill="none" xmlns="http://www.w3.org/2000/svg">
<path d="M49.768 17.504C49.768 15.84 50.112 14.36 50.8 13.064C51.504 11.752 52.496 10.736 53.776 10.016C55.056 9.28 56.528 8.912 58.192 8.912C60.304 8.912 62.08 9.48 63.52 10.616C64.96 11.736 65.888 13.264 66.304 15.2H61.24C60.936 14.56 60.512 14.072 59.968 13.736C59.44 13.4 58.824 13.232 58.12 13.232C57.032 13.232 56.16 13.624 55.504 14.408C54.864 15.176 54.544 16.208 54.544 17.504C54.544 18.816 54.864 19.864 55.504 20.648C56.16 21.416 57.032 21.8 58.12 21.8C58.824 21.8 59.44 21.632 59.968 21.296C60.512 20.96 60.936 20.472 61.24 19.832H66.304C65.888 21.768 64.96 23.304 63.52 24.44C62.08 25.56 60.304 26.12 58.192 26.12C56.528 26.12 55.056 25.76 53.776 25.04C52.496 24.304 51.504 23.288 50.8 21.992C50.112 20.68 49.768 19.184 49.768 17.504ZM74.7955 26.168C73.4515 26.168 72.2435 25.888 71.1715 25.328C70.1155 24.768 69.2835 23.968 68.6755 22.928C68.0675 21.888 67.7635 20.664 67.7635 19.256C67.7635 17.864 68.0675 16.648 68.6755 15.608C69.2995 14.568 70.1395 13.768 71.1955 13.208C72.2675 12.648 73.4755 12.368 74.8195 12.368C76.1635 12.368 77.3635 12.648 78.4195 13.208C79.4915 13.768 80.3315 14.568 80.9395 15.608C81.5635 16.648 81.8755 17.864 81.8755 19.256C81.8755 20.648 81.5635 21.872 80.9395 22.928C80.3315 23.968 79.4915 24.768 78.4195 25.328C77.3475 25.888 76.1395 26.168 74.7955 26.168ZM74.7955 22.088C75.4515 22.088 75.9955 21.848 76.4275 21.368C76.8755 20.872 77.0995 20.168 77.0995 19.256C77.0995 18.344 76.8755 17.648 76.4275 17.168C75.9955 16.688 75.4595 16.448 74.8195 16.448C74.1795 16.448 73.6435 16.688 73.2115 17.168C72.7795 17.648 72.5635 18.344 72.5635 19.256C72.5635 20.184 72.7715 20.888 73.1875 21.368C73.6035 21.848 74.1395 22.088 74.7955 22.088ZM101.381 12.416C103.077 12.416 104.405 12.928 105.365 13.952C106.341 14.976 106.829 16.376 106.829 18.152V26H102.125V18.776C102.125 18.056 101.925 17.496 101.525 17.096C101.125 16.696 100.581 16.496 99.8933 16.496C99.2053 16.496 98.6613 16.696 98.2613 17.096C97.8613 17.496 97.6613 18.056 97.6613 18.776V26H92.9573V18.776C92.9573 18.056 92.7573 17.496 92.3573 17.096C91.9733 16.696 91.4373 16.496 90.7493 16.496C90.0453 16.496 89.4933 16.696 89.0933 17.096C88.6933 17.496 88.4933 18.056 88.4933 18.776V26H83.7893V12.536H88.4933V14.312C88.9093 13.736 89.4453 13.28 90.1013 12.944C90.7733 12.592 91.5413 12.416 92.4053 12.416C93.3973 12.416 94.2773 12.632 95.0453 13.064C95.8293 13.496 96.4453 14.104 96.8933 14.888C97.3733 14.152 98.0053 13.56 98.7893 13.112C99.5733 12.648 100.437 12.416 101.381 12.416ZM114.111 14.408C114.479 13.784 114.999 13.288 115.671 12.92C116.343 12.552 117.135 12.368 118.047 12.368C119.119 12.368 120.087 12.648 120.951 13.208C121.831 13.768 122.519 14.568 123.015 15.608C123.527 16.648 123.783 17.864 123.783 19.256C123.783 20.648 123.527 21.872 123.015 22.928C122.519 23.968 121.831 24.768 120.951 25.328C120.087 25.888 119.119 26.168 118.047 26.168C117.135 26.168 116.343 25.984 115.671 25.616C115.015 25.248 114.495 24.752 114.111 24.128V32.432H109.407V12.536H114.111V14.408ZM119.007 19.256C119.007 18.376 118.767 17.696 118.287 17.216C117.823 16.72 117.247 16.472 116.559 16.472C115.871 16.472 115.287 16.72 114.807 17.216C114.343 17.712 114.111 18.392 114.111 19.256C114.111 20.136 114.343 20.824 114.807 21.32C115.287 21.816 115.871 22.064 116.559 22.064C117.247 22.064 117.823 21.816 118.287 21.32C118.767 20.808 119.007 20.12 119.007 19.256ZM124.951 19.256C124.951 17.864 125.199 16.648 125.695 15.608C126.207 14.568 126.895 13.768 127.759 13.208C128.639 12.648 129.615 12.368 130.687 12.368C131.615 12.368 132.415 12.552 133.087 12.92C133.759 13.288 134.279 13.784 134.647 14.408V12.536H139.351V26H134.647V24.128C134.279 24.752 133.751 25.248 133.063 25.616C132.391 25.984 131.599 26.168 130.687 26.168C129.615 26.168 128.639 25.888 127.759 25.328C126.895 24.768 126.207 23.968 125.695 22.928C125.199 21.872 124.951 20.648 124.951 19.256ZM134.647 19.256C134.647 18.392 134.407 17.712 133.927 17.216C133.463 16.72 132.887 16.472 132.199 16.472C131.495 16.472 130.911 16.72 130.447 17.216C129.983 17.696 129.751 18.376 129.751 19.256C129.751 20.12 129.983 20.808 130.447 21.32C130.911 21.816 131.495 22.064 132.199 22.064C132.887 22.064 133.463 21.816 133.927 21.32C134.407 20.824 134.647 20.136 134.647 19.256ZM150.84 12.416C152.392 12.416 153.624 12.936 154.536 13.976C155.448 15 155.904 16.392 155.904 18.152V26H151.2V18.776C151.2 18.008 151 17.408 150.6 16.976C150.2 16.528 149.664 16.304 148.992 16.304C148.288 16.304 147.736 16.528 147.336 16.976C146.936 17.408 146.736 18.008 146.736 18.776V26H142.032V12.536H146.736V14.456C147.152 13.848 147.712 13.36 148.416 12.992C149.12 12.608 149.928 12.416 150.84 12.416ZM172.981 12.536L164.437 32.408H159.325L162.541 25.424L157.021 12.536H162.253L165.085 20.168L167.821 12.536H172.981ZM189.389 26L186.101 21.224L183.293 26H177.941L183.437 17.336L177.749 9.08H183.293L186.485 13.736L189.221 9.08H194.573L189.149 17.6L194.933 26H189.389Z" fill="#6659FF"/>
<ellipse cx="18.5" cy="17.0988" rx="18.5" ry="17.0988" fill="url(#paint0_radial_1_1676)"/>
<ellipse cx="29.6972" cy="28.9732" rx="7.30263" ry="7.12452" fill="url(#paint1_radial_1_1676)"/>
<defs>
<radialGradient id="paint0_radial_1_1676" cx="0" cy="0" r="1" gradientUnits="userSpaceOnUse" gradientTransform="translate(-3.54624e-07 5.47163) rotate(57.2179) scale(34.1678 35.3882)">
<stop stop-color="#897FFF"/>
<stop offset="1" stop-color="#5243FF"/>
</radialGradient>
<radialGradient id="paint1_radial_1_1676" cx="0" cy="0" r="1" gradientUnits="userSpaceOnUse" gradientTransform="translate(22.3945 21.8486) rotate(62.8649) scale(16.0114 16.2471)">
<stop offset="0.221875" stop-color="#EF0606"/>
<stop offset="1" stop-color="#B00101"/>
</radialGradient>
</defs>
</svg>
